<svg width="840" height="351" viewBox="0 0 840 351" fill="none" xmlns="http://www.w3.org/2000/svg">
<path d="M309.458 161.458H272.349C271.805 161.458 271.358 161.01 271.358 160.464V99.0945C271.358 98.4782 271.861 97.9879 272.461 97.9879H291.232C293.604 97.9879 295.684 96.2929 296.186 93.9676L300.847 71.989C301.21 70.308 300.68 68.5991 299.424 67.4224C298.182 66.2457 296.451 65.8115 294.804 66.2597C269.642 73.1797 236.747 77.312 206.798 77.312H167.037C137.101 77.312 104.193 73.1797 79.0444 66.2737C77.3976 65.8255 75.667 66.2597 74.4249 67.4364C73.1829 68.6131 72.6525 70.322 73.0014 72.003L77.6627 93.9816C78.1512 96.3069 80.2446 98.0019 82.6171 98.0019H104.291C104.835 98.0019 105.282 98.4502 105.282 98.9965V142.379C105.282 145.181 107.557 147.45 110.348 147.45H122.057C124.848 147.45 127.123 145.167 127.123 142.379V99.1225C127.123 98.5062 127.625 98.0159 128.225 98.0159H248.456C249.071 98.0159 249.559 98.5202 249.559 99.1225V279.784C249.559 282.586 251.834 284.855 254.625 284.855H266.334C269.125 284.855 271.4 282.572 271.4 279.784V183.157C271.4 182.61 271.847 182.162 272.391 182.162H309.5C312.291 182.162 314.566 179.879 314.566 177.091V166.571C314.566 163.77 312.291 161.5 309.5 161.5L309.458 161.458Z" fill="white"/>
<path d="M127.305 234.706C127.332 218.345 127.36 201.983 127.36 185.608C127.36 183.801 128.826 182.33 130.626 182.33C138.148 182.33 145.726 182.316 153.305 182.302H154.868C162.474 182.288 170.094 182.26 177.686 182.26C181.566 182.26 184.734 179.01 184.734 175.004V169.107C184.734 165.114 181.579 161.85 177.686 161.85H71.0478C67.168 161.85 64 165.1 64 169.107V175.004C64 178.996 67.1541 182.26 71.0478 182.26H102.323C104.124 182.26 105.589 183.731 105.589 185.538C105.589 201.871 105.603 218.205 105.631 234.538L105.659 258.226C105.659 262.792 106.65 267.037 108.617 270.847L108.645 270.903C110.446 274.251 112.888 277.052 115.888 279.252L115.861 279.294L118.68 281.073L118.722 281.003C122.085 282.74 125.923 283.622 130.152 283.636H135.301C138.818 283.636 141.693 280.821 141.693 277.361V269.502C141.693 266.014 138.832 263.185 135.301 263.185H130.333C129.426 263.185 128.812 262.918 128.212 262.274C127.542 261.56 127.263 260.817 127.263 259.795C127.263 251.782 127.291 243.783 127.305 235.771V234.706Z" fill="white"/>
<path d="M210.161 232.787C206.17 230.644 201.439 229.551 196.08 229.551H188.781C187.846 229.551 187.036 229.369 186.324 228.991C185.627 228.515 185.082 227.954 184.65 227.268C184.287 226.512 184.105 225.699 184.105 224.775C184.105 223.892 184.287 223.108 184.678 222.337C185.11 221.595 185.696 221.006 186.464 220.53C187.176 220.082 187.943 219.886 188.878 219.886H214.418L214.627 219.872C218.367 219.395 221.173 216.202 221.173 212.461V187.247C221.173 183.423 218.019 180.327 214.153 180.327H208.012C204.146 180.327 200.992 183.437 200.992 187.247V195.652C200.992 197.291 199.652 198.622 197.992 198.622C196.443 198.622 194.796 198.636 193.149 198.65H192.87C191.139 198.664 189.381 198.692 187.692 198.692C182.752 198.692 178.244 199.854 174.266 202.152C170.289 204.449 167.107 207.671 164.832 211.705C162.543 215.669 161.385 220.292 161.385 225.433C161.385 230.574 162.613 235.253 165.014 239.175C167.4 243.055 170.652 246.137 174.741 248.35L174.825 248.392C178.872 250.465 183.463 251.502 188.474 251.502L195.424 251.432C197.35 251.432 199.066 252.384 199.918 253.925C200.364 254.738 200.587 255.648 200.587 256.713C200.587 257.609 200.35 258.464 199.834 259.36C199.373 260.187 198.745 260.845 197.894 261.378C197.14 261.854 196.233 262.092 195.214 262.092H162.125C157.952 262.092 154.574 265.468 154.574 269.628V275.61C154.574 279.756 157.966 283.146 162.125 283.146H196.819C201.718 283.146 206.212 282.011 210.147 279.756L210.203 279.728C214.25 277.375 217.46 274.069 219.735 269.908C222.052 265.72 223.238 260.761 223.238 255.144C223.238 250.255 222.08 245.815 219.791 241.962C217.544 238.068 214.306 234.972 210.147 232.787H210.161Z" fill="white"/>
<g clip-path="url(#clip0_8_816)">
<path d="M765.083 98.4983C767.977 98.4983 770.433 97.4664 772.395 95.4592C774.441 93.4379 775.486 91.0067 775.486 88.2503C775.486 85.494 774.441 83.0628 772.409 81.0415C770.447 79.0201 767.977 77.9883 765.097 77.9883C762.218 77.9883 759.833 79.006 757.786 81.0273C755.739 83.0486 754.695 85.4799 754.695 88.2503C754.695 91.0208 755.739 93.452 757.786 95.4734C759.833 97.4947 762.289 98.5124 765.097 98.5124L765.083 98.4983Z" fill="white"/>
<path d="M769.431 105.41H760.863C758.647 105.41 756.84 107.191 756.84 109.382V167.265C756.84 169.456 758.647 171.237 760.863 171.237H769.431C771.647 171.237 773.453 169.456 773.453 167.265V109.382C773.453 107.191 771.647 105.41 769.431 105.41Z" fill="white"/>
<path d="M723.233 104.774H710.629C696.966 104.774 685.843 115.913 685.843 129.61V151.575C685.843 162.163 694.439 170.771 704.997 170.771C712.351 170.771 719.479 168.622 725.576 164.58C725.703 164.495 725.802 164.438 725.901 164.396C725.901 164.396 725.901 164.396 725.901 164.424V172.693C725.901 177.344 722.132 181.118 717.503 181.118H690.431C688.229 181.118 686.45 182.899 686.45 185.104V193.557C686.45 195.748 688.243 197.543 690.431 197.543H717.503C731.166 197.543 742.288 186.404 742.288 172.707C742.288 164.58 742.316 131.532 742.316 123.913C742.316 113.382 733.763 104.802 723.247 104.802L723.233 104.774ZM725.915 133.384C725.915 144.946 716.529 154.36 704.983 154.36C703.458 154.36 702.216 153.116 702.216 151.59V129.624C702.216 124.973 705.985 121.199 710.615 121.199H723.219C724.701 121.199 725.901 122.401 725.901 123.885V133.384H725.915Z" fill="white"/>
<path d="M667.635 105.41H658.616C656.315 105.41 654.438 107.191 654.438 109.382V167.265C654.438 169.456 656.315 171.237 658.616 171.237H667.635C669.936 171.237 671.813 169.456 671.813 167.265V109.382C671.813 107.191 669.936 105.41 667.635 105.41Z" fill="white"/>
<path d="M663.062 77.9883C660.14 77.9883 657.572 79.006 655.426 81.0132C653.267 83.0345 652.166 85.4657 652.166 88.2503C652.166 91.0349 653.267 93.4662 655.426 95.4875C657.572 97.4947 660.14 98.5124 663.062 98.5124C665.984 98.5124 668.652 97.4947 670.698 95.4875C672.858 93.4662 673.959 91.0349 673.959 88.2503C673.959 85.4657 672.858 83.0486 670.712 81.0273C668.652 79.0201 666.083 77.9883 663.062 77.9883Z" fill="white"/>
<path d="M623.654 164.354C623.654 164.453 623.654 164.566 623.654 164.679V168.085C623.654 168.962 624.106 169.796 624.868 170.389C625.573 170.926 626.491 171.209 627.465 171.209H635.454C636.428 171.209 637.345 170.912 638.051 170.389C638.827 169.796 639.279 168.962 639.279 168.085V123.998C639.279 113.383 630.796 104.76 620.379 104.76H607.888C594.338 104.76 583.314 115.983 583.314 129.779V151.901C583.314 162.558 591.825 171.223 602.298 171.223C609.864 171.223 617.133 168.919 623.329 164.551C623.456 164.467 623.555 164.41 623.64 164.354H623.654ZM623.033 133.567C623.033 145.215 613.731 154.699 602.312 154.699C600.802 154.699 599.574 153.441 599.574 151.901V129.779C599.574 125.1 603.301 121.284 607.888 121.284H620.379C621.847 121.284 623.033 122.5 623.033 123.998V133.567Z" fill="white"/>
<path d="M552.149 168.594C554.859 170.347 558.303 171.237 562.368 171.237H568.127C570.766 171.237 572.912 169.089 572.912 166.446V160.89C572.912 158.247 570.766 156.099 568.127 156.099H564.598C563.709 156.099 563.017 155.943 562.509 155.632C562.029 155.335 561.62 154.77 561.267 153.95L551.852 133.426C551.231 132.083 551.768 130.444 553.109 129.525C556.426 127.277 559.234 124.436 561.45 121.044C564.358 116.605 565.84 111.375 565.84 105.495V87.2185C565.84 84.5752 563.695 82.4267 561.055 82.4267H553.885C551.246 82.4267 549.1 84.5752 549.1 87.2185V105.622C549.1 108.393 548.465 110.838 547.223 112.888L546.898 113.397C545.515 115.545 543.567 117.213 541.111 118.358C538.683 119.446 535.945 120.012 532.953 120.012H525.147C523.595 120.012 522.339 118.754 522.339 117.213V87.2468C522.339 84.6035 520.193 82.455 517.54 82.455H510.369C507.73 82.455 505.584 84.6035 505.584 87.2468V166.446C505.584 169.089 507.73 171.237 510.369 171.237H517.54C520.179 171.237 522.339 169.089 522.339 166.446V137.949C522.339 136.409 523.595 135.15 525.176 135.15H532.064C533.207 135.037 534.28 135.659 534.76 136.705L546.08 161.357C547.477 164.41 549.524 166.841 552.163 168.594H552.149Z" fill="white"/>
<path d="M351.015 82.469H378.341C380.317 82.469 381.926 84.0945 381.926 86.0734C381.926 100.76 381.982 149.724 381.982 149.724C381.982 153.611 382.829 157.201 384.481 160.424L384.509 160.466C386.259 163.717 388.701 166.361 391.792 168.311L391.834 168.339C394.94 170.234 398.581 171.209 402.66 171.223H407.163C409.831 171.223 412.004 169.089 412.004 166.474V159.59C412.004 156.947 409.831 154.798 407.163 154.798H402.83C401.828 154.798 401.094 154.487 400.43 153.766C399.725 153.003 399.4 152.155 399.4 151.081C399.4 144.07 399.47 100.463 399.47 86.1158C399.47 84.1228 401.08 82.5114 403.056 82.5114C409.845 82.5114 416.69 82.4972 423.536 82.4831V81.9884L423.592 82.4831C430.452 82.469 437.326 82.4548 444.172 82.4548C447.517 82.4548 449.592 79.543 449.592 76.8432V71.6698C449.592 68.97 447.517 66.0581 444.172 66.0581H351.015C347.67 66.0864 345.609 68.9982 345.609 71.698V76.8715C345.609 79.5713 347.684 82.4831 351.029 82.4831L351.015 82.469Z" fill="white"/>
<path d="M581.07 215.678C572.799 215.678 565.134 218.222 558.811 222.576L558.769 222.604C558.599 222.717 558.458 222.802 558.331 222.859C558.331 222.746 558.317 222.604 558.317 222.435V218.887C558.317 217.883 557.767 217.063 557.033 216.512C556.299 215.975 555.339 215.664 554.323 215.664H545.826C544.809 215.664 543.849 215.975 543.115 216.512C542.382 217.049 541.831 217.883 541.831 218.887V280.855C541.831 282.777 543.384 284.332 545.303 284.332H555.522C557.442 284.332 558.995 282.777 558.995 280.855V254.747C558.995 242.605 568.889 232.753 581.098 232.753C582.75 232.753 584.062 234.082 584.062 235.707V280.855C584.062 282.777 585.615 284.332 587.534 284.332H597.753C599.673 284.332 601.226 282.777 601.226 280.855V235.707C601.226 224.64 592.206 215.664 581.098 215.664L581.07 215.678ZM558.388 223.042C558.388 223.042 558.388 223.014 558.402 222.986C558.402 222.986 558.388 223.028 558.373 223.042H558.388ZM559.305 223.438L559.122 222.477H559.051C559.051 222.477 559.178 222.463 559.234 222.463H559.122L559.305 223.452V223.438ZM560.124 222.887C560.124 222.887 560.11 222.859 560.095 222.844C560.095 222.844 560.11 222.873 560.124 222.887Z" fill="white"/>
<path d="M506.587 215.678H493.418C479.148 215.678 467.574 227.297 467.574 241.63V264.614C467.574 275.681 476.508 284.657 487.532 284.657C494.434 284.657 500.913 282.848 506.53 279.682L506.474 279.795L507.786 278.947C508.407 278.565 509.014 278.183 509.607 277.773L509.664 277.731C509.833 277.618 509.96 277.547 510.073 277.491C510.073 277.604 510.087 277.745 510.087 277.915V281.448C510.087 282.452 510.638 283.272 511.357 283.809C512.077 284.346 513.037 284.657 514.053 284.657H522.48C523.496 284.657 524.456 284.346 525.176 283.809C525.896 283.272 526.446 282.438 526.446 281.448V235.637C526.446 224.625 517.554 215.692 506.573 215.692L506.587 215.678ZM509.438 245.574C509.438 257.73 499.628 267.568 487.546 267.568C485.923 267.568 484.61 266.253 484.61 264.614V241.63C484.61 236.739 488.562 232.767 493.432 232.767H506.601C508.167 232.767 509.452 234.039 509.452 235.623V245.56L509.438 245.574Z" fill="white"/>
<path d="M769.134 215.282H760.087C757.8 215.282 755.895 217.106 755.895 219.41V280.162C755.895 282.466 757.786 284.29 760.087 284.29H769.134C771.421 284.29 773.326 282.466 773.326 280.162V219.41C773.326 217.106 771.435 215.282 769.134 215.282Z" fill="white"/>
<path d="M448.886 267.667H445.216C444.214 267.667 443.508 267.469 443.028 267.172C442.562 266.889 442.111 266.338 441.73 265.433V265.405L440.84 265.815L441.744 265.405L431.934 243.948C431.285 242.521 431.849 240.768 433.261 239.807C436.733 237.46 439.627 234.506 441.941 230.958C444.99 226.279 446.5 220.866 446.5 214.717V195.606C446.5 192.864 444.284 190.645 441.546 190.645H434.065C431.327 190.645 429.111 192.864 429.111 195.606V214.844C429.111 218.053 428.335 220.738 426.824 222.972V222.986C425.385 225.233 423.366 226.972 420.769 228.202C418.243 229.347 415.406 229.926 412.258 229.926H404.114C402.477 229.926 401.136 228.597 401.136 226.944V195.592C401.136 192.85 398.92 190.631 396.181 190.631H388.701C385.962 190.631 383.746 192.85 383.746 195.592V266.451C383.761 268.374 382.222 269.928 380.302 269.928H348.686L348.53 269.985C346.808 270.593 345.566 272.247 345.566 274.197V281.307C345.566 283.272 347.147 284.855 349.109 284.855H387.684C394.191 284.855 399.611 280.247 400.896 274.112C401.009 273.731 401.079 273.321 401.093 272.897C401.15 272.388 401.178 271.865 401.178 271.342C401.178 271.172 401.15 271.003 401.093 270.847V248.641C401.093 247.001 402.42 245.659 404.072 245.659H411.27C412.47 245.531 413.613 246.196 414.121 247.312L425.921 273.095C427.375 276.275 429.478 278.805 432.23 280.643C435.11 282.494 438.667 283.399 442.859 283.399H448.858C451.596 283.399 453.812 281.18 453.812 278.438V272.628C453.812 269.886 451.596 267.667 448.858 267.667H448.886Z" fill="white"/>
<path d="M718.9 215.678H705.618C691.235 215.678 679.562 227.283 679.562 241.63V264.614C679.562 275.681 688.582 284.657 699.69 284.657C706.648 284.657 713.183 282.848 718.843 279.682L718.787 279.795L720.1 278.947C720.735 278.565 721.356 278.169 721.963 277.745L722.005 277.717C722.175 277.604 722.316 277.519 722.443 277.462C722.443 277.575 722.457 277.717 722.457 277.886V281.42C722.457 282.424 723.007 283.244 723.741 283.795C724.475 284.332 725.435 284.643 726.451 284.643H734.948C735.965 284.643 736.924 284.332 737.658 283.795C738.392 283.258 738.943 282.424 738.943 281.42V235.608C738.943 224.583 729.966 215.664 718.914 215.664L718.9 215.678ZM721.779 245.574C721.779 257.716 711.885 267.568 699.676 267.568C698.024 267.568 696.712 266.239 696.712 264.614V241.63C696.712 236.739 700.692 232.767 705.618 232.767H718.9C720.495 232.767 721.779 234.054 721.779 235.623V245.56V245.574Z" fill="white"/>
<path d="M772.239 189.698C770.165 187.592 767.582 186.531 764.561 186.531C761.54 186.531 759.028 187.606 756.883 189.698C754.737 191.804 753.636 194.334 753.636 197.246C753.636 200.158 754.737 202.688 756.883 204.794C759.028 206.9 761.611 207.96 764.561 207.96C767.511 207.96 770.165 206.9 772.239 204.78C774.385 202.674 775.472 200.158 775.472 197.26C775.472 194.362 774.371 191.832 772.239 189.74V189.698Z" fill="white"/>
<path d="M664.615 251.468C662.808 248.372 660.197 245.969 656.908 244.273C653.605 242.535 649.78 241.729 645.56 241.729H639.462C638.474 241.729 637.656 241.517 636.95 241.135C636.23 240.655 635.666 240.089 635.242 239.411C634.875 238.69 634.677 237.884 634.677 236.951C634.677 236.075 634.875 235.298 635.256 234.548C635.694 233.813 636.272 233.22 637.063 232.753C637.769 232.315 638.573 232.089 639.561 232.089H661.312C663.232 232.089 664.784 230.534 664.784 228.612V219.805C664.784 217.883 663.232 216.328 661.312 216.342C658.87 216.342 639.999 216.399 638.573 216.399C634.649 216.399 631.022 217.289 627.79 219.113C624.585 220.922 622.059 223.452 620.224 226.633C618.347 229.841 617.458 233.488 617.458 237.488C617.458 241.489 618.389 245.164 620.365 248.344C622.285 251.411 624.896 253.829 628.142 255.567H628.171H628.199L628.636 254.691L628.199 255.581C631.516 257.249 635.214 258.041 639.194 258.041L645.024 257.984C646.929 257.984 648.679 258.917 649.569 260.486C649.992 261.249 650.232 262.126 650.232 263.186C650.232 264.034 650.006 264.882 649.498 265.744L650.161 266.126L650.359 266.239L649.498 265.744L650.359 266.253L649.498 265.759V265.773C649.06 266.55 648.453 267.186 647.592 267.723C646.788 268.218 645.87 268.444 644.868 268.444H622.525C619.561 268.444 617.091 270.791 617.091 273.773V278.692C617.091 281.675 619.561 284.021 622.525 284.021H646.195C650.091 284.021 653.704 283.145 656.922 281.335L656.442 280.473V280.501L656.922 281.335C660.183 279.47 662.738 276.869 664.572 273.589C666.492 270.183 667.395 266.197 667.395 261.886C667.395 258.083 666.506 254.578 664.629 251.482L664.615 251.468Z" fill="white"/>
<path d="M477.807 167.11L478.061 167.534C481.448 165.569 484.144 162.799 486.05 159.321C487.998 155.816 489 151.632 489 146.897C489 142.798 488.026 139.08 486.106 135.871C484.229 132.62 481.519 130.048 478.047 128.224C474.702 126.429 470.707 125.51 466.176 125.51H459.782C458.766 125.51 457.891 125.298 457.143 124.888C456.367 124.38 455.774 123.758 455.322 123.037C454.913 122.231 454.715 121.355 454.715 120.351C454.715 119.418 454.913 118.556 455.322 117.764C455.788 116.959 456.423 116.323 457.242 115.814C458.018 115.333 458.879 115.107 459.881 115.107H482.267H482.323C485.104 114.754 487.207 112.379 487.207 109.594V87.5436C487.207 84.7449 484.878 82.4691 482.027 82.4691H476.635C473.784 82.4691 471.455 84.7449 471.455 87.5436V94.8938C471.455 96.8586 469.832 98.47 467.856 98.47C466.444 98.47 464.962 98.47 463.466 98.4983H463.382C461.857 98.5124 460.319 98.5266 458.837 98.5266C454.687 98.5266 450.89 99.5019 447.559 101.41C444.228 103.332 441.56 106.018 439.641 109.396C437.721 112.704 436.747 116.577 436.747 120.902C436.747 125.228 437.763 129.129 439.782 132.408C441.772 135.659 444.51 138.232 447.926 140.084L447.982 140.112C451.398 141.851 455.266 142.727 459.486 142.727L465.598 142.67C467.644 142.67 469.479 143.702 470.397 145.356C470.876 146.218 471.102 147.165 471.102 148.268C471.102 149.215 470.834 150.148 470.312 151.067C469.846 151.929 469.154 152.636 468.279 153.187C467.461 153.696 466.501 153.964 465.414 153.964H436.422C433.317 153.964 430.777 156.48 430.777 159.576V164.806C430.777 167.901 433.303 170.418 436.422 170.418H466.826C470.961 170.418 474.73 169.456 478.047 167.562L477.807 167.124V167.11Z" fill="white"/>
</g>
<defs>
<clipPath id="clip0_8_816">
<rect width="429.905" height="218.768" fill="white" transform="translate(345.566 66.0866)"/>
</clipPath>
</defs>
</svg>
